<?xml version="1.0" encoding="UTF-8" standalone="no"?><svg xmlns="http://www.w3.org/2000/svg" xmlns:xlink="http://www.w3.org/1999/xlink" contentStyleType="text/css" height="529.8px" preserveAspectRatio="none" style="width:1333px;height:529px;background:#FFFFFF;" version="1.1" viewBox="0 0 1333 529" width="1333.8px" zoomAndPan="magnify"><defs/><g><!--MD5=[6c9dd2190a36ae297cc6891a37c2db1b]
class ITimeSheet--><g id="elem_ITimeSheet"><rect codeLine="1" fill="#F1F1F1" height="60.4969" id="ITimeSheet" rx="1.5" ry="1.5" style="stroke:#181818;stroke-width:0.3;" width="189.6" x="4.2" y="6"/><ellipse cx="74.85" cy="15.6" fill="#B4A7E5" rx="6.6" ry="6.6" style="stroke:#181818;stroke-width:0.6;"/><path d="M75.45,13.8 L75.45,17.4 L76.65,17.4 L76.9406,17.4 L77.25,17.775 L77.25,18 L77.25,18.225 L76.9406,18.6 L76.65,18.6 L73.05,18.6 L72.7594,18.6 L72.45,18.225 L72.45,18 L72.45,17.775 L72.7594,17.4 L73.05,17.4 L74.25,17.4 L74.25,13.8 L73.05,13.8 L72.7594,13.8 L72.45,13.425 L72.45,13.2 L72.45,12.975 L72.7594,12.6 L73.05,12.6 L76.65,12.6 L76.9406,12.6 L77.25,12.975 L77.25,13.2 L77.25,13.425 L76.9406,13.8 L76.65,13.8 L75.45,13.8 Z " fill="#000000"/><text fill="#000000" font-family="sans-serif" font-size="8.4" font-style="italic" lengthAdjust="spacing" textLength="43.2" x="87.15" y="19.0371">ITimeSheet</text><line style="stroke:#181818;stroke-width:0.3;" x1="4.8" x2="193.2" y1="25.2" y2="25.2"/><text fill="#000000" font-family="sans-serif" font-size="8.4" lengthAdjust="spacing" textLength="171.6" x="7.8" y="36.3199">VacationDaysAccumulated : float «get» «set»</text><text fill="#000000" font-family="sans-serif" font-size="8.4" lengthAdjust="spacing" textLength="182.4" x="7.8" y="46.8855">VacationDaysCurrentBalance : float «get» «set»</text><text fill="#000000" font-family="sans-serif" font-size="8.4" lengthAdjust="spacing" textLength="180.6" x="7.8" y="57.4512">TotalDaysWorkedThisYear : ushort «get» «set»</text><line style="stroke:#181818;stroke-width:0.3;" x1="4.8" x2="193.2" y1="61.6969" y2="61.6969"/></g><!--MD5=[7681cd2cc143c7f8eefb7b7541d7a33c]
class IVacation--><g id="elem_IVacation"><rect codeLine="7" fill="#F1F1F1" height="39.3656" id="IVacation" rx="1.5" ry="1.5" style="stroke:#181818;stroke-width:0.3;" width="199.2" x="214.8" y="16.5"/><ellipse cx="294.15" cy="26.1" fill="#B4A7E5" rx="6.6" ry="6.6" style="stroke:#181818;stroke-width:0.6;"/><path d="M294.75,24.3 L294.75,27.9 L295.95,27.9 L296.2406,27.9 L296.55,28.275 L296.55,28.5 L296.55,28.725 L296.2406,29.1 L295.95,29.1 L292.35,29.1 L292.0594,29.1 L291.75,28.725 L291.75,28.5 L291.75,28.275 L292.0594,27.9 L292.35,27.9 L293.55,27.9 L293.55,24.3 L292.35,24.3 L292.0594,24.3 L291.75,23.925 L291.75,23.7 L291.75,23.475 L292.0594,23.1 L292.35,23.1 L295.95,23.1 L296.2406,23.1 L296.55,23.475 L296.55,23.7 L296.55,23.925 L296.2406,24.3 L295.95,24.3 L294.75,24.3 Z " fill="#000000"/><text fill="#000000" font-family="sans-serif" font-size="8.4" font-style="italic" lengthAdjust="spacing" textLength="35.4" x="306.45" y="29.5371">IVacation</text><line style="stroke:#181818;stroke-width:0.3;" x1="215.4" x2="413.4" y1="35.7" y2="35.7"/><line style="stroke:#181818;stroke-width:0.3;" x1="215.4" x2="413.4" y1="40.5" y2="40.5"/><text fill="#000000" font-family="sans-serif" font-size="8.4" lengthAdjust="spacing" textLength="192" x="218.4" y="51.6199">TakeVacation(vacationDaysRequested:float) : void</text></g><!--MD5=[e9ec5fa4d752bf1e873b3b47414187ff]
class IWork--><g id="elem_IWork"><rect codeLine="11" fill="#F1F1F1" height="39.3656" id="IWork" rx="1.5" ry="1.5" style="stroke:#181818;stroke-width:0.3;" width="114.6" x="435.3" y="16.5"/><ellipse cx="478.35" cy="26.1" fill="#B4A7E5" rx="6.6" ry="6.6" style="stroke:#181818;stroke-width:0.6;"/><path d="M478.95,24.3 L478.95,27.9 L480.15,27.9 L480.4406,27.9 L480.75,28.275 L480.75,28.5 L480.75,28.725 L480.4406,29.1 L480.15,29.1 L476.55,29.1 L476.2594,29.1 L475.95,28.725 L475.95,28.5 L475.95,28.275 L476.2594,27.9 L476.55,27.9 L477.75,27.9 L477.75,24.3 L476.55,24.3 L476.2594,24.3 L475.95,23.925 L475.95,23.7 L475.95,23.475 L476.2594,23.1 L476.55,23.1 L480.15,23.1 L480.4406,23.1 L480.75,23.475 L480.75,23.7 L480.75,23.925 L480.4406,24.3 L480.15,24.3 L478.95,24.3 Z " fill="#000000"/><text fill="#000000" font-family="sans-serif" font-size="8.4" font-style="italic" lengthAdjust="spacing" textLength="23.4" x="490.65" y="29.5371">IWork</text><line style="stroke:#181818;stroke-width:0.3;" x1="435.9" x2="549.3" y1="35.7" y2="35.7"/><line style="stroke:#181818;stroke-width:0.3;" x1="435.9" x2="549.3" y1="40.5" y2="40.5"/><text fill="#000000" font-family="sans-serif" font-size="8.4" lengthAdjust="spacing" textLength="107.4" x="438.9" y="51.6199">Work(daysWorked:int) : void</text></g><!--MD5=[40b2679c594f47596bdbc4921a18bc03]
class IEmployee--><g id="elem_IEmployee"><rect codeLine="15" fill="#F1F1F1" height="39.3656" id="IEmployee" rx="1.5" ry="1.5" style="stroke:#181818;stroke-width:0.3;" width="91.2" x="268.8" y="118.2"/><ellipse cx="292.38" cy="127.8" fill="#B4A7E5" rx="6.6" ry="6.6" style="stroke:#181818;stroke-width:0.6;"/><path d="M292.98,126 L292.98,129.6 L294.18,129.6 L294.4706,129.6 L294.78,129.975 L294.78,130.2 L294.78,130.425 L294.4706,130.8 L294.18,130.8 L290.58,130.8 L290.2894,130.8 L289.98,130.425 L289.98,130.2 L289.98,129.975 L290.2894,129.6 L290.58,129.6 L291.78,129.6 L291.78,126 L290.58,126 L290.2894,126 L289.98,125.625 L289.98,125.4 L289.98,125.175 L290.2894,124.8 L290.58,124.8 L294.18,124.8 L294.4706,124.8 L294.78,125.175 L294.78,125.4 L294.78,125.625 L294.4706,126 L294.18,126 L292.98,126 Z " fill="#000000"/><text fill="#000000" font-family="sans-serif" font-size="8.4" font-style="italic" lengthAdjust="spacing" textLength="39.6" x="304.02" y="131.2371">IEmployee</text><line style="stroke:#181818;stroke-width:0.3;" x1="269.4" x2="359.4" y1="137.4" y2="137.4"/><text fill="#000000" font-family="sans-serif" font-size="8.4" lengthAdjust="spacing" textLength="84" x="272.4" y="148.5199">EmployeeId : int «get»</text><line style="stroke:#181818;stroke-width:0.3;" x1="269.4" x2="359.4" y1="152.7656" y2="152.7656"/></g><!--MD5=[7421f545a0d8420c5bec41e74b387d9c]
class Employee--><g id="elem_Employee"><rect codeLine="22" fill="#F1F1F1" height="123.8906" id="Employee" rx="1.5" ry="1.5" style="stroke:#181818;stroke-width:0.3;" width="242.4" x="193.2" y="209.4"/><ellipse cx="293.25" cy="219" fill="#ADD1B2" rx="6.6" ry="6.6" style="stroke:#181818;stroke-width:0.6;"/><path d="M294.45,216.9 Q294.5719,216.6 294.7125,216.45 Q294.8531,216.3 295.0125,216.3 Q295.2938,216.3 295.4719,216.4688 Q295.65,216.6375 295.65,217.0313 L295.65,217.9688 Q295.65,218.3625 295.4813,218.5313 Q295.3125,218.7 295.05,218.7 Q294.8156,218.7 294.6656,218.5969 Q294.5156,218.4938 294.45,218.2219 Q294.4219,218.0344 294.3187,217.9313 Q294.1312,217.7344 293.7938,217.6219 Q293.4563,217.5 293.1188,217.5 Q292.6969,217.5 292.3406,217.6688 Q291.9938,217.8375 291.7219,218.2125 Q291.45,218.5875 291.45,219.1031 L291.45,219.6563 Q291.45,220.275 291.9563,220.6875 Q292.4625,221.1 293.3625,221.1 Q293.8969,221.1 294.2719,220.9781 Q294.4875,220.9125 294.7313,220.6969 Q294.8906,220.575 294.975,220.5375 Q295.0594,220.5 295.1625,220.5 Q295.3594,220.5 295.5,220.6594 Q295.65,220.8094 295.65,221.025 Q295.65,221.2313 295.4437,221.475 Q295.1438,221.8312 294.6656,222.0281 Q294.0375,222.3 293.2688,222.3 Q292.3688,222.3 291.6469,221.9438 Q291.0656,221.6625 290.6531,221.0531 Q290.25,220.4438 290.25,219.7219 L290.25,219.0656 Q290.25,218.3156 290.6063,217.6594 Q290.9719,217.0031 291.6,216.6563 Q292.2375,216.3 292.95,216.3 Q293.3812,216.3 293.7562,216.45 Q294.1312,216.6 294.45,216.9 Z " fill="#000000"/><text fill="#000000" font-family="sans-serif" font-size="8.4" lengthAdjust="spacing" textLength="37.2" x="305.55" y="222.4371">Employee</text><line style="stroke:#181818;stroke-width:0.3;" x1="193.8" x2="435" y1="228.6" y2="228.6"/><ellipse cx="199.8" cy="237.1828" fill="none" rx="1.8" ry="1.8" style="stroke:#038048;stroke-width:0.6;"/><text fill="#000000" font-family="sans-serif" font-size="8.4" lengthAdjust="spacing" textLength="84" x="205.2" y="239.7199">EmployeeId : int «get»</text><ellipse cx="199.8" cy="247.7484" fill="none" rx="1.8" ry="1.8" style="stroke:#038048;stroke-width:0.6;"/><text fill="#000000" font-family="sans-serif" font-size="8.4" lengthAdjust="spacing" textLength="171.6" x="205.2" y="250.2855">VacationDaysAccumulated : float «get» «set»</text><ellipse cx="199.8" cy="258.3141" fill="none" rx="1.8" ry="1.8" style="stroke:#038048;stroke-width:0.6;"/><text fill="#000000" font-family="sans-serif" font-size="8.4" lengthAdjust="spacing" textLength="182.4" x="205.2" y="260.8512">VacationDaysCurrentBalance : float «get» «set»</text><ellipse cx="199.8" cy="268.8797" fill="none" rx="1.8" ry="1.8" style="stroke:#038048;stroke-width:0.6;"/><text fill="#000000" font-family="sans-serif" font-size="8.4" lengthAdjust="spacing" textLength="180.6" x="205.2" y="271.4168">TotalDaysWorkedThisYear : ushort «get» «set»</text><line style="stroke:#181818;stroke-width:0.3;" x1="193.8" x2="435" y1="275.6625" y2="275.6625"/><polygon fill="#FFFF44" points="199.8,281.2453,202.2,283.6453,199.8,286.0453,197.4,283.6453" style="stroke:#B38D22;stroke-width:0.6;"/><text fill="#000000" font-family="sans-serif" font-size="8.4" lengthAdjust="spacing" textLength="141" x="205.2" y="286.7824">Employee(id:int, type:EmployeeType)</text><polygon fill="#FFFF44" points="199.8,291.8109,202.2,294.2109,199.8,296.6109,197.4,294.2109" style="stroke:#B38D22;stroke-width:0.6;"/><text fill="#000000" font-family="sans-serif" font-size="8.4" lengthAdjust="spacing" textLength="118.2" x="205.2" y="297.348">Employee(type:EmployeeType)</text><ellipse cx="199.8" cy="305.3766" fill="#84BE84" rx="1.8" ry="1.8" style="stroke:#038048;stroke-width:0.6;"/><text fill="#000000" font-family="sans-serif" font-size="8.4" lengthAdjust="spacing" textLength="142.2" x="205.2" y="307.9137">«virtual» Work(daysWorked:int) : void</text><ellipse cx="199.8" cy="315.9422" fill="#84BE84" rx="1.8" ry="1.8" style="stroke:#038048;stroke-width:0.6;"/><text fill="#000000" font-family="sans-serif" font-size="8.4" lengthAdjust="spacing" textLength="226.8" x="205.2" y="318.4793">«virtual» TakeVacation(vacationDaysRequested:float) : void</text><polygon fill="#FFFF44" points="199.8,323.5078,202.2,325.9078,199.8,328.3078,197.4,325.9078" style="stroke:#B38D22;stroke-width:0.6;"/><text fill="#000000" font-family="sans-serif" font-size="8.4" lengthAdjust="spacing" textLength="58.2" x="205.2" y="329.0449">Clone() : object</text></g><!--MD5=[dae0ed1c900060366ffd53b87280382a]
class HourlyEmployee--><g id="elem_HourlyEmployee"><rect codeLine="33" fill="#F1F1F1" height="60.4969" id="HourlyEmployee" rx="1.5" ry="1.5" style="stroke:#181818;stroke-width:0.3;" width="136.2" x="63.3" y="369"/><ellipse cx="98.25" cy="378.6" fill="#ADD1B2" rx="6.6" ry="6.6" style="stroke:#181818;stroke-width:0.6;"/><path d="M99.45,376.5 Q99.5719,376.2 99.7125,376.05 Q99.8531,375.9 100.0125,375.9 Q100.2938,375.9 100.4719,376.0687 Q100.65,376.2375 100.65,376.6312 L100.65,377.5687 Q100.65,377.9625 100.4813,378.1312 Q100.3125,378.3 100.05,378.3 Q99.8156,378.3 99.6656,378.1969 Q99.5156,378.0938 99.45,377.8219 Q99.4219,377.6344 99.3188,377.5313 Q99.1313,377.3344 98.7938,377.2219 Q98.4563,377.1 98.1187,377.1 Q97.6969,377.1 97.3406,377.2688 Q96.9937,377.4375 96.7219,377.8125 Q96.45,378.1875 96.45,378.7031 L96.45,379.2562 Q96.45,379.875 96.9563,380.2875 Q97.4625,380.7 98.3625,380.7 Q98.8969,380.7 99.2719,380.5781 Q99.4875,380.5125 99.7313,380.2969 Q99.8906,380.175 99.975,380.1375 Q100.0594,380.1 100.1625,380.1 Q100.3594,380.1 100.5,380.2594 Q100.65,380.4094 100.65,380.625 Q100.65,380.8313 100.4438,381.075 Q100.1438,381.4313 99.6656,381.6281 Q99.0375,381.9 98.2688,381.9 Q97.3687,381.9 96.6469,381.5438 Q96.0656,381.2625 95.6531,380.6531 Q95.25,380.0438 95.25,379.3219 L95.25,378.6656 Q95.25,377.9156 95.6063,377.2594 Q95.9719,376.6031 96.6,376.2562 Q97.2375,375.9 97.95,375.9 Q98.3813,375.9 98.7563,376.05 Q99.1313,376.2 99.45,376.5 Z " fill="#000000"/><text fill="#000000" font-family="sans-serif" font-size="8.4" lengthAdjust="spacing" textLength="61.2" x="110.55" y="382.0371">HourlyEmployee</text><line style="stroke:#181818;stroke-width:0.3;" x1="63.9" x2="198.9" y1="388.2" y2="388.2"/><line style="stroke:#181818;stroke-width:0.3;" x1="63.9" x2="198.9" y1="393" y2="393"/><ellipse cx="69.9" cy="401.5828" fill="#84BE84" rx="1.8" ry="1.8" style="stroke:#038048;stroke-width:0.6;"/><text fill="#000000" font-family="sans-serif" font-size="8.4" lengthAdjust="spacing" textLength="120.6" x="75.3" y="404.1199">CloneHourly() : HourlyEmployee</text><ellipse cx="69.9" cy="412.1484" fill="#84BE84" rx="1.8" ry="1.8" style="stroke:#038048;stroke-width:0.6;"/><text fill="#000000" font-family="sans-serif" font-size="8.4" lengthAdjust="spacing" textLength="85.2" x="75.3" y="414.6855">HourlyEmployee(id:int)</text><ellipse cx="69.9" cy="422.7141" fill="#84BE84" rx="1.8" ry="1.8" style="stroke:#038048;stroke-width:0.6;"/><text fill="#000000" font-family="sans-serif" font-size="8.4" lengthAdjust="spacing" textLength="67.2" x="75.3" y="425.2512">HourlyEmployee()</text></g><!--MD5=[1f570ed761f4e3402fcd142935c16e01]
class SalariedEmployee--><g id="elem_SalariedEmployee"><rect codeLine="38" fill="#F1F1F1" height="60.4969" id="SalariedEmployee" rx="1.5" ry="1.5" style="stroke:#181818;stroke-width:0.3;" width="187.8" x="220.5" y="369"/><ellipse cx="277.65" cy="378.6" fill="#ADD1B2" rx="6.6" ry="6.6" style="stroke:#181818;stroke-width:0.6;"/><path d="M278.85,376.5 Q278.9719,376.2 279.1125,376.05 Q279.2531,375.9 279.4125,375.9 Q279.6937,375.9 279.8719,376.0687 Q280.05,376.2375 280.05,376.6312 L280.05,377.5687 Q280.05,377.9625 279.8812,378.1312 Q279.7125,378.3 279.45,378.3 Q279.2156,378.3 279.0656,378.1969 Q278.9156,378.0938 278.85,377.8219 Q278.8219,377.6344 278.7188,377.5313 Q278.5313,377.3344 278.1937,377.2219 Q277.8563,377.1 277.5188,377.1 Q277.0969,377.1 276.7406,377.2688 Q276.3938,377.4375 276.1219,377.8125 Q275.85,378.1875 275.85,378.7031 L275.85,379.2562 Q275.85,379.875 276.3563,380.2875 Q276.8625,380.7 277.7625,380.7 Q278.2969,380.7 278.6719,380.5781 Q278.8875,380.5125 279.1312,380.2969 Q279.2906,380.175 279.375,380.1375 Q279.4594,380.1 279.5625,380.1 Q279.7594,380.1 279.9,380.2594 Q280.05,380.4094 280.05,380.625 Q280.05,380.8313 279.8438,381.075 Q279.5438,381.4313 279.0656,381.6281 Q278.4375,381.9 277.6688,381.9 Q276.7688,381.9 276.0469,381.5438 Q275.4656,381.2625 275.0531,380.6531 Q274.65,380.0438 274.65,379.3219 L274.65,378.6656 Q274.65,377.9156 275.0062,377.2594 Q275.3719,376.6031 276,376.2562 Q276.6375,375.9 277.35,375.9 Q277.7813,375.9 278.1563,376.05 Q278.5313,376.2 278.85,376.5 Z " fill="#000000"/><text fill="#000000" font-family="sans-serif" font-size="8.4" lengthAdjust="spacing" textLength="68.4" x="289.95" y="382.0371">SalariedEmployee</text><line style="stroke:#181818;stroke-width:0.3;" x1="221.1" x2="407.7" y1="388.2" y2="388.2"/><line style="stroke:#181818;stroke-width:0.3;" x1="221.1" x2="407.7" y1="393" y2="393"/><ellipse cx="227.1" cy="401.5828" fill="#84BE84" rx="1.8" ry="1.8" style="stroke:#038048;stroke-width:0.6;"/><text fill="#000000" font-family="sans-serif" font-size="8.4" lengthAdjust="spacing" textLength="135" x="232.5" y="404.1199">CloneSalaried() : SalariedEmployee</text><ellipse cx="227.1" cy="412.1484" fill="#84BE84" rx="1.8" ry="1.8" style="stroke:#038048;stroke-width:0.6;"/><text fill="#000000" font-family="sans-serif" font-size="8.4" lengthAdjust="spacing" textLength="172.2" x="232.5" y="414.6855">SalariedEmployee(id:int, type:EmployeeType)</text><ellipse cx="227.1" cy="422.7141" fill="#84BE84" rx="1.8" ry="1.8" style="stroke:#038048;stroke-width:0.6;"/><text fill="#000000" font-family="sans-serif" font-size="8.4" lengthAdjust="spacing" textLength="149.4" x="232.5" y="425.2512">SalariedEmployee(type:EmployeeType)</text></g><!--MD5=[ee8e7faa03c7f382b73e569eb1a58472]
class ManagerEmployee--><g id="elem_ManagerEmployee"><rect codeLine="43" fill="#F1F1F1" height="60.4969" id="ManagerEmployee" rx="1.5" ry="1.5" style="stroke:#181818;stroke-width:0.3;" width="155.4" x="236.7" y="465.6"/><ellipse cx="276.45" cy="475.2" fill="#ADD1B2" rx="6.6" ry="6.6" style="stroke:#181818;stroke-width:0.6;"/><path d="M277.65,473.1 Q277.7719,472.8 277.9125,472.65 Q278.0531,472.5 278.2125,472.5 Q278.4938,472.5 278.6719,472.6688 Q278.85,472.8375 278.85,473.2313 L278.85,474.1688 Q278.85,474.5625 278.6813,474.7313 Q278.5125,474.9 278.25,474.9 Q278.0156,474.9 277.8656,474.7969 Q277.7156,474.6937 277.65,474.4219 Q277.6219,474.2344 277.5188,474.1312 Q277.3313,473.9344 276.9938,473.8219 Q276.6563,473.7 276.3187,473.7 Q275.8969,473.7 275.5406,473.8688 Q275.1937,474.0375 274.9219,474.4125 Q274.65,474.7875 274.65,475.3031 L274.65,475.8563 Q274.65,476.475 275.1563,476.8875 Q275.6625,477.3 276.5625,477.3 Q277.0969,477.3 277.4719,477.1781 Q277.6875,477.1125 277.9313,476.8969 Q278.0906,476.775 278.175,476.7375 Q278.2594,476.7 278.3625,476.7 Q278.5594,476.7 278.7,476.8594 Q278.85,477.0094 278.85,477.225 Q278.85,477.4313 278.6438,477.675 Q278.3438,478.0313 277.8656,478.2281 Q277.2375,478.5 276.4688,478.5 Q275.5687,478.5 274.8469,478.1437 Q274.2656,477.8625 273.8531,477.2531 Q273.45,476.6437 273.45,475.9219 L273.45,475.2656 Q273.45,474.5156 273.8063,473.8594 Q274.1719,473.2031 274.8,472.8563 Q275.4375,472.5 276.15,472.5 Q276.5813,472.5 276.9563,472.65 Q277.3313,472.8 277.65,473.1 Z " fill="#000000"/><text fill="#000000" font-family="sans-serif" font-size="8.4" lengthAdjust="spacing" textLength="70.8" x="288.75" y="478.6371">ManagerEmployee</text><line style="stroke:#181818;stroke-width:0.3;" x1="237.3" x2="391.5" y1="484.8" y2="484.8"/><line style="stroke:#181818;stroke-width:0.3;" x1="237.3" x2="391.5" y1="489.6" y2="489.6"/><ellipse cx="243.3" cy="498.1828" fill="#84BE84" rx="1.8" ry="1.8" style="stroke:#038048;stroke-width:0.6;"/><text fill="#000000" font-family="sans-serif" font-size="8.4" lengthAdjust="spacing" textLength="139.8" x="248.7" y="500.7199">CloneManager() : ManagerEmployee</text><ellipse cx="243.3" cy="508.7484" fill="#84BE84" rx="1.8" ry="1.8" style="stroke:#038048;stroke-width:0.6;"/><text fill="#000000" font-family="sans-serif" font-size="8.4" lengthAdjust="spacing" textLength="94.8" x="248.7" y="511.2855">ManagerEmployee(id:int)</text><ellipse cx="243.3" cy="519.3141" fill="#84BE84" rx="1.8" ry="1.8" style="stroke:#038048;stroke-width:0.6;"/><text fill="#000000" font-family="sans-serif" font-size="8.4" lengthAdjust="spacing" textLength="76.8" x="248.7" y="521.8512">ManagerEmployee()</text></g><!--MD5=[6fcfcbf811b95891c0f58293ccf6e71d]
class EmployeeType--><g id="elem_EmployeeType"><rect fill="#F1F1F1" height="28.8" id="EmployeeType" rx="1.5" ry="1.5" style="stroke:#181818;stroke-width:0.3;" width="75.6" x="429.6" y="384.9"/><ellipse cx="438.6" cy="394.5" fill="#ADD1B2" rx="6.6" ry="6.6" style="stroke:#181818;stroke-width:0.6;"/><path d="M439.8,392.4 Q439.9219,392.1 440.0625,391.95 Q440.2031,391.8 440.3625,391.8 Q440.6438,391.8 440.8219,391.9688 Q441,392.1375 441,392.5313 L441,393.4688 Q441,393.8625 440.8313,394.0313 Q440.6625,394.2 440.4,394.2 Q440.1656,394.2 440.0156,394.0969 Q439.8656,393.9938 439.8,393.7219 Q439.7719,393.5344 439.6688,393.4313 Q439.4813,393.2344 439.1438,393.1219 Q438.8063,393 438.4688,393 Q438.0469,393 437.6906,393.1688 Q437.3438,393.3375 437.0719,393.7125 Q436.8,394.0875 436.8,394.6031 L436.8,395.1563 Q436.8,395.775 437.3063,396.1875 Q437.8125,396.6 438.7125,396.6 Q439.2469,396.6 439.6219,396.4781 Q439.8375,396.4125 440.0813,396.1969 Q440.2406,396.075 440.325,396.0375 Q440.4094,396 440.5125,396 Q440.7094,396 440.85,396.1594 Q441,396.3094 441,396.525 Q441,396.7313 440.7938,396.975 Q440.4938,397.3313 440.0156,397.5281 Q439.3875,397.8 438.6188,397.8 Q437.7188,397.8 436.9969,397.4437 Q436.4156,397.1625 436.0031,396.5531 Q435.6,395.9437 435.6,395.2219 L435.6,394.5656 Q435.6,393.8156 435.9563,393.1594 Q436.3219,392.5031 436.95,392.1563 Q437.5875,391.8 438.3,391.8 Q438.7313,391.8 439.1063,391.95 Q439.4813,392.1 439.8,392.4 Z " fill="#000000"/><text fill="#000000" font-family="sans-serif" font-size="8.4" lengthAdjust="spacing" textLength="56.4" x="447" y="397.9371">EmployeeType</text><line style="stroke:#181818;stroke-width:0.3;" x1="430.2" x2="504.6" y1="404.1" y2="404.1"/><line style="stroke:#181818;stroke-width:0.3;" x1="430.2" x2="504.6" y1="408.9" y2="408.9"/></g><!--MD5=[4a9152c5dc4cf48d30b51b90258d4ae6]
class IEmployeeService`2--><g id="elem_IEmployeeService`2"><rect codeLine="97" fill="#F1F1F1" height="60.4969" id="IEmployeeService`2" rx="1.5" ry="1.5" style="stroke:#181818;stroke-width:0.3;" width="333.6" x="571.2" y="6"/><ellipse cx="687.45" cy="15.6" fill="#ADD1B2" rx="6.6" ry="6.6" style="stroke:#181818;stroke-width:0.6;"/><path d="M688.65,13.5 Q688.7719,13.2 688.9125,13.05 Q689.0531,12.9 689.2125,12.9 Q689.4938,12.9 689.6719,13.0688 Q689.85,13.2375 689.85,13.6313 L689.85,14.5688 Q689.85,14.9625 689.6813,15.1313 Q689.5125,15.3 689.25,15.3 Q689.0156,15.3 688.8656,15.1969 Q688.7156,15.0938 688.65,14.8219 Q688.6219,14.6344 688.5188,14.5313 Q688.3313,14.3344 687.9938,14.2219 Q687.6563,14.1 687.3188,14.1 Q686.8969,14.1 686.5406,14.2687 Q686.1938,14.4375 685.9219,14.8125 Q685.65,15.1875 685.65,15.7031 L685.65,16.2562 Q685.65,16.875 686.1563,17.2875 Q686.6625,17.7 687.5625,17.7 Q688.0969,17.7 688.4719,17.5781 Q688.6875,17.5125 688.9313,17.2969 Q689.0906,17.175 689.175,17.1375 Q689.2594,17.1 689.3625,17.1 Q689.5594,17.1 689.7,17.2594 Q689.85,17.4094 689.85,17.625 Q689.85,17.8313 689.6438,18.075 Q689.3438,18.4313 688.8656,18.6281 Q688.2375,18.9 687.4688,18.9 Q686.5688,18.9 685.8469,18.5438 Q685.2656,18.2625 684.8531,17.6531 Q684.45,17.0438 684.45,16.3219 L684.45,15.6656 Q684.45,14.9156 684.8063,14.2594 Q685.1719,13.6031 685.8,13.2563 Q686.4375,12.9 687.15,12.9 Q687.5813,12.9 687.9563,13.05 Q688.3313,13.2 688.65,13.5 Z " fill="#000000"/><text fill="#000000" font-family="sans-serif" font-size="8.4" lengthAdjust="spacing" textLength="75" x="699.75" y="19.0371">IEmployeeService`2</text><rect fill="#FFFFFF" height="10.2563" style="stroke:#181818;stroke-width:0.6;stroke-dasharray:2.0,2.0;" width="19.8" x="886.8" y="4.2"/><text fill="#000000" font-family="sans-serif" font-size="7.2" font-style="italic" lengthAdjust="spacing" textLength="18.6" x="887.4" y="12.2742">T1,T2</text><line style="stroke:#181818;stroke-width:0.3;" x1="571.8" x2="904.2" y1="25.2" y2="25.2"/><line style="stroke:#181818;stroke-width:0.3;" x1="571.8" x2="904.2" y1="30" y2="30"/><text fill="#000000" font-family="sans-serif" font-size="8.4" lengthAdjust="spacing" textLength="279" x="574.8" y="41.1199">GetEmployeeAsync(employeeId:int, token:CancellationToken) : Task&lt;T?&gt;</text><text fill="#000000" font-family="sans-serif" font-size="8.4" lengthAdjust="spacing" textLength="326.4" x="574.8" y="51.6855">ListEmployees(employeeQuery:IQuery, token:CancellationToken) : Task&lt;TResponse&gt;</text><text fill="#000000" font-family="sans-serif" font-size="8.4" lengthAdjust="spacing" textLength="277.2" x="574.8" y="62.2512">UpdateEmployeeAsync(employee:T, token:CancellationToken) : Task&lt;T&gt;</text></g><!--MD5=[f932e673ba042daf729ca07450819370]
class IResponse`1--><g id="elem_IResponse`1"><rect codeLine="76" fill="#F1F1F1" height="39.3656" id="IResponse`1" rx="1.5" ry="1.5" style="stroke:#181818;stroke-width:0.3;" width="90.6" x="978.3" y="16.5"/><ellipse cx="994.86" cy="26.1" fill="#ADD1B2" rx="6.6" ry="6.6" style="stroke:#181818;stroke-width:0.6;"/><path d="M996.06,24 Q996.1819,23.7 996.3225,23.55 Q996.4631,23.4 996.6225,23.4 Q996.9038,23.4 997.0819,23.5687 Q997.26,23.7375 997.26,24.1312 L997.26,25.0687 Q997.26,25.4625 997.0913,25.6312 Q996.9225,25.8 996.66,25.8 Q996.4256,25.8 996.2756,25.6969 Q996.1256,25.5938 996.06,25.3219 Q996.0319,25.1344 995.9287,25.0313 Q995.7412,24.8344 995.4038,24.7219 Q995.0662,24.6 994.7287,24.6 Q994.3069,24.6 993.9506,24.7688 Q993.6037,24.9375 993.3319,25.3125 Q993.06,25.6875 993.06,26.2031 L993.06,26.7562 Q993.06,27.375 993.5662,27.7875 Q994.0725,28.2 994.9725,28.2 Q995.5069,28.2 995.8819,28.0781 Q996.0975,28.0125 996.3413,27.7969 Q996.5006,27.675 996.585,27.6375 Q996.6694,27.6 996.7725,27.6 Q996.9694,27.6 997.11,27.7594 Q997.26,27.9094 997.26,28.125 Q997.26,28.3313 997.0537,28.575 Q996.7537,28.9313 996.2756,29.1281 Q995.6475,29.4 994.8787,29.4 Q993.9787,29.4 993.2569,29.0438 Q992.6756,28.7625 992.2631,28.1531 Q991.86,27.5438 991.86,26.8219 L991.86,26.1656 Q991.86,25.4156 992.2163,24.7594 Q992.5819,24.1031 993.21,23.7562 Q993.8475,23.4 994.56,23.4 Q994.9912,23.4 995.3662,23.55 Q995.7412,23.7 996.06,24 Z " fill="#000000"/><text fill="#000000" font-family="sans-serif" font-size="8.4" lengthAdjust="spacing" textLength="48" x="1004.94" y="29.5371">IResponse`1</text><rect fill="#FFFFFF" height="10.2563" style="stroke:#181818;stroke-width:0.6;stroke-dasharray:2.0,2.0;" width="5.4" x="1065.3" y="14.7"/><text fill="#000000" font-family="sans-serif" font-size="7.2" font-style="italic" lengthAdjust="spacing" textLength="4.2" x="1065.9" y="22.7742">T</text><line style="stroke:#181818;stroke-width:0.3;" x1="978.9" x2="1068.3" y1="35.7" y2="35.7"/><ellipse cx="984.9" cy="44.2828" fill="none" rx="1.8" ry="1.8" style="stroke:#038048;stroke-width:0.6;"/><text fill="#000000" font-family="sans-serif" font-size="8.4" lengthAdjust="spacing" textLength="75" x="990.3" y="46.8199">Count : long? «get»</text><line style="stroke:#181818;stroke-width:0.3;" x1="978.9" x2="1068.3" y1="51.0656" y2="51.0656"/></g><!--MD5=[807360d9e6bcfb24ecaab88291cadeca]
class IQuery--><g id="elem_IQuery"><rect codeLine="61" fill="#F1F1F1" height="49.9313" id="IQuery" rx="1.5" ry="1.5" style="stroke:#181818;stroke-width:0.3;" width="78.6" x="1221.3" y="11.4"/><ellipse cx="1245.42" cy="21" fill="#B4A7E5" rx="6.6" ry="6.6" style="stroke:#181818;stroke-width:0.6;"/><path d="M1246.02,19.2 L1246.02,22.8 L1247.22,22.8 L1247.5106,22.8 L1247.82,23.175 L1247.82,23.4 L1247.82,23.625 L1247.5106,24 L1247.22,24 L1243.62,24 L1243.3294,24 L1243.02,23.625 L1243.02,23.4 L1243.02,23.175 L1243.3294,22.8 L1243.62,22.8 L1244.82,22.8 L1244.82,19.2 L1243.62,19.2 L1243.3294,19.2 L1243.02,18.825 L1243.02,18.6 L1243.02,18.375 L1243.3294,18 L1243.62,18 L1247.22,18 L1247.5106,18 L1247.82,18.375 L1247.82,18.6 L1247.82,18.825 L1247.5106,19.2 L1247.22,19.2 L1246.02,19.2 Z " fill="#000000"/><text fill="#000000" font-family="sans-serif" font-size="8.4" font-style="italic" lengthAdjust="spacing" textLength="25.8" x="1257.18" y="24.4371">IQuery</text><line style="stroke:#181818;stroke-width:0.3;" x1="1221.9" x2="1299.3" y1="30.6" y2="30.6"/><text fill="#000000" font-family="sans-serif" font-size="8.4" lengthAdjust="spacing" textLength="70.2" x="1224.9" y="41.7199">Top : ushort «get»</text><text fill="#000000" font-family="sans-serif" font-size="8.4" lengthAdjust="spacing" textLength="71.4" x="1224.9" y="52.2855">Skip : ushort «get»</text><line style="stroke:#181818;stroke-width:0.3;" x1="1221.9" x2="1299.3" y1="56.5313" y2="56.5313"/></g><!--MD5=[e86cb3152b373893f72577900da131c9]
class IList`1--><g id="elem_IList`1"><rect codeLine="78" fill="#F1F1F1" height="28.8" id="IList`1" rx="1.5" ry="1.5" style="stroke:#181818;stroke-width:0.3;" width="48.6" x="987.3" y="256.8"/><ellipse cx="996.3" cy="266.4" fill="#ADD1B2" rx="6.6" ry="6.6" style="stroke:#181818;stroke-width:0.6;"/><path d="M997.5,264.3 Q997.6219,264 997.7625,263.85 Q997.9031,263.7 998.0625,263.7 Q998.3438,263.7 998.5219,263.8688 Q998.7,264.0375 998.7,264.4313 L998.7,265.3688 Q998.7,265.7625 998.5313,265.9313 Q998.3625,266.1 998.1,266.1 Q997.8656,266.1 997.7156,265.9969 Q997.5656,265.8938 997.5,265.6219 Q997.4719,265.4344 997.3688,265.3313 Q997.1813,265.1344 996.8438,265.0219 Q996.5062,264.9 996.1687,264.9 Q995.7469,264.9 995.3906,265.0687 Q995.0437,265.2375 994.7719,265.6125 Q994.5,265.9875 994.5,266.5031 L994.5,267.0563 Q994.5,267.675 995.0062,268.0875 Q995.5125,268.5 996.4125,268.5 Q996.9469,268.5 997.3219,268.3781 Q997.5375,268.3125 997.7813,268.0969 Q997.9406,267.975 998.025,267.9375 Q998.1094,267.9 998.2125,267.9 Q998.4094,267.9 998.55,268.0594 Q998.7,268.2094 998.7,268.425 Q998.7,268.6312 998.4938,268.875 Q998.1937,269.2313 997.7156,269.4281 Q997.0875,269.7 996.3187,269.7 Q995.4187,269.7 994.6969,269.3438 Q994.1156,269.0625 993.7031,268.4531 Q993.3,267.8438 993.3,267.1219 L993.3,266.4656 Q993.3,265.7156 993.6563,265.0594 Q994.0219,264.4031 994.65,264.0563 Q995.2875,263.7 996,263.7 Q996.4313,263.7 996.8063,263.85 Q997.1813,264 997.5,264.3 Z " fill="#000000"/><text fill="#000000" font-family="sans-serif" font-size="8.4" lengthAdjust="spacing" textLength="22.8" x="1004.7" y="269.8371">IList`1</text><rect fill="#FFFFFF" height="10.2563" style="stroke:#181818;stroke-width:0.6;stroke-dasharray:2.0,2.0;" width="5.4" x="1032.3" y="255"/><text fill="#000000" font-family="sans-serif" font-size="7.2" font-style="italic" lengthAdjust="spacing" textLength="4.2" x="1032.9" y="263.0742">T</text><line style="stroke:#181818;stroke-width:0.3;" x1="987.9" x2="1035.3" y1="276" y2="276"/><line style="stroke:#181818;stroke-width:0.3;" x1="987.9" x2="1035.3" y1="280.8" y2="280.8"/></g><!--MD5=[62ba8ad8b61caf20139235a169a8c31d]
class Response--><g id="elem_Response"><rect codeLine="72" fill="#F1F1F1" height="49.9313" id="Response" rx="1.5" ry="1.5" style="stroke:#181818;stroke-width:0.3;" width="190.2" x="980.1" y="113.1"/><ellipse cx="1053.45" cy="122.7" fill="#ADD1B2" rx="6.6" ry="6.6" style="stroke:#181818;stroke-width:0.6;"/><path d="M1054.65,120.6 Q1054.7719,120.3 1054.9125,120.15 Q1055.0531,120 1055.2125,120 Q1055.4937,120 1055.6719,120.1687 Q1055.85,120.3375 1055.85,120.7312 L1055.85,121.6687 Q1055.85,122.0625 1055.6812,122.2312 Q1055.5125,122.4 1055.25,122.4 Q1055.0156,122.4 1054.8656,122.2969 Q1054.7156,122.1938 1054.65,121.9219 Q1054.6219,121.7344 1054.5188,121.6313 Q1054.3313,121.4344 1053.9937,121.3219 Q1053.6563,121.2 1053.3188,121.2 Q1052.8969,121.2 1052.5406,121.3687 Q1052.1938,121.5375 1051.9219,121.9125 Q1051.65,122.2875 1051.65,122.8031 L1051.65,123.3562 Q1051.65,123.975 1052.1563,124.3875 Q1052.6625,124.8 1053.5625,124.8 Q1054.0969,124.8 1054.4719,124.6781 Q1054.6875,124.6125 1054.9312,124.3969 Q1055.0906,124.275 1055.175,124.2375 Q1055.2594,124.2 1055.3625,124.2 Q1055.5594,124.2 1055.7,124.3594 Q1055.85,124.5094 1055.85,124.725 Q1055.85,124.9312 1055.6438,125.175 Q1055.3438,125.5313 1054.8656,125.7281 Q1054.2375,126 1053.4688,126 Q1052.5688,126 1051.8469,125.6438 Q1051.2656,125.3625 1050.8531,124.7531 Q1050.45,124.1438 1050.45,123.4219 L1050.45,122.7656 Q1050.45,122.0156 1050.8062,121.3594 Q1051.1719,120.7031 1051.8,120.3562 Q1052.4375,120 1053.15,120 Q1053.5813,120 1053.9563,120.15 Q1054.3313,120.3 1054.65,120.6 Z " fill="#000000"/><text fill="#000000" font-family="sans-serif" font-size="8.4" lengthAdjust="spacing" textLength="38.4" x="1065.75" y="126.1371">Response</text><line style="stroke:#181818;stroke-width:0.3;" x1="980.7" x2="1169.7" y1="132.3" y2="132.3"/><ellipse cx="986.7" cy="140.8828" fill="none" rx="1.8" ry="1.8" style="stroke:#038048;stroke-width:0.6;"/><text fill="#000000" font-family="sans-serif" font-size="8.4" lengthAdjust="spacing" textLength="75" x="992.1" y="143.4199">Count : long? «get»</text><line style="stroke:#181818;stroke-width:0.3;" x1="980.7" x2="1169.7" y1="147.6656" y2="147.6656"/><ellipse cx="986.7" cy="156.2484" fill="#84BE84" rx="1.8" ry="1.8" style="stroke:#038048;stroke-width:0.6;"/><text fill="#000000" font-family="sans-serif" font-size="8.4" lengthAdjust="spacing" textLength="174.6" x="992.1" y="158.7855">Response(count:long?, data:IList&lt;Employee&gt;)</text></g><!--MD5=[0851f84a889f989e7bb0bebc385d0f09]
class Request--><g id="elem_Request"><rect codeLine="83" fill="#F1F1F1" height="60.4969" id="Request" rx="1.5" ry="1.5" style="stroke:#181818;stroke-width:0.3;" width="138" x="1191.6" y="107.7"/><ellipse cx="1242.15" cy="117.3" fill="#ADD1B2" rx="6.6" ry="6.6" style="stroke:#181818;stroke-width:0.6;"/><path d="M1243.35,115.2 Q1243.4719,114.9 1243.6125,114.75 Q1243.7531,114.6 1243.9125,114.6 Q1244.1938,114.6 1244.3719,114.7688 Q1244.55,114.9375 1244.55,115.3313 L1244.55,116.2688 Q1244.55,116.6625 1244.3813,116.8313 Q1244.2125,117 1243.95,117 Q1243.7156,117 1243.5656,116.8969 Q1243.4156,116.7937 1243.35,116.5219 Q1243.3219,116.3344 1243.2188,116.2312 Q1243.0313,116.0344 1242.6938,115.9219 Q1242.3563,115.8 1242.0188,115.8 Q1241.5969,115.8 1241.2406,115.9688 Q1240.8938,116.1375 1240.6219,116.5125 Q1240.35,116.8875 1240.35,117.4031 L1240.35,117.9563 Q1240.35,118.575 1240.8563,118.9875 Q1241.3625,119.4 1242.2625,119.4 Q1242.7969,119.4 1243.1719,119.2781 Q1243.3875,119.2125 1243.6313,118.9969 Q1243.7906,118.875 1243.875,118.8375 Q1243.9594,118.8 1244.0625,118.8 Q1244.2594,118.8 1244.4,118.9594 Q1244.55,119.1094 1244.55,119.325 Q1244.55,119.5313 1244.3438,119.775 Q1244.0438,120.1313 1243.5656,120.3281 Q1242.9375,120.6 1242.1688,120.6 Q1241.2688,120.6 1240.5469,120.2437 Q1239.9656,119.9625 1239.5531,119.3531 Q1239.15,118.7437 1239.15,118.0219 L1239.15,117.3656 Q1239.15,116.6156 1239.5063,115.9594 Q1239.8719,115.3031 1240.5,114.9563 Q1241.1375,114.6 1241.85,114.6 Q1242.2813,114.6 1242.6563,114.75 Q1243.0313,114.9 1243.35,115.2 Z " fill="#000000"/><text fill="#000000" font-family="sans-serif" font-size="8.4" lengthAdjust="spacing" textLength="31.8" x="1254.45" y="120.7371">Request</text><line style="stroke:#181818;stroke-width:0.3;" x1="1192.2" x2="1329" y1="126.9" y2="126.9"/><ellipse cx="1198.2" cy="135.4828" fill="none" rx="1.8" ry="1.8" style="stroke:#038048;stroke-width:0.6;"/><text fill="#000000" font-family="sans-serif" font-size="8.4" lengthAdjust="spacing" textLength="70.2" x="1203.6" y="138.0199">Top : ushort «get»</text><ellipse cx="1198.2" cy="146.0484" fill="none" rx="1.8" ry="1.8" style="stroke:#038048;stroke-width:0.6;"/><text fill="#000000" font-family="sans-serif" font-size="8.4" lengthAdjust="spacing" textLength="71.4" x="1203.6" y="148.5855">Skip : ushort «get»</text><line style="stroke:#181818;stroke-width:0.3;" x1="1192.2" x2="1329" y1="152.8312" y2="152.8312"/><ellipse cx="1198.2" cy="161.4141" fill="#84BE84" rx="1.8" ry="1.8" style="stroke:#038048;stroke-width:0.6;"/><text fill="#000000" font-family="sans-serif" font-size="8.4" lengthAdjust="spacing" textLength="122.4" x="1203.6" y="163.9512">Request(skip:ushort, top:ushort)</text></g><!--MD5=[0f20495fd379aae9fdd57608b6a794fe]
class EmployeeService--><g id="elem_EmployeeService"><rect codeLine="90" fill="#F1F1F1" height="71.0625" id="EmployeeService" rx="1.5" ry="1.5" style="stroke:#181818;stroke-width:0.3;" width="356.4" x="559.8" y="102.6"/><ellipse cx="702.75" cy="112.2" fill="#ADD1B2" rx="6.6" ry="6.6" style="stroke:#181818;stroke-width:0.6;"/><path d="M703.95,110.1 Q704.0719,109.8 704.2125,109.65 Q704.3531,109.5 704.5125,109.5 Q704.7937,109.5 704.9719,109.6688 Q705.15,109.8375 705.15,110.2313 L705.15,111.1688 Q705.15,111.5625 704.9812,111.7313 Q704.8125,111.9 704.55,111.9 Q704.3156,111.9 704.1656,111.7969 Q704.0156,111.6938 703.95,111.4219 Q703.9219,111.2344 703.8188,111.1313 Q703.6313,110.9344 703.2937,110.8219 Q702.9563,110.7 702.6188,110.7 Q702.1969,110.7 701.8406,110.8687 Q701.4938,111.0375 701.2219,111.4125 Q700.95,111.7875 700.95,112.3031 L700.95,112.8563 Q700.95,113.475 701.4563,113.8875 Q701.9625,114.3 702.8625,114.3 Q703.3969,114.3 703.7719,114.1781 Q703.9875,114.1125 704.2312,113.8969 Q704.3906,113.775 704.475,113.7375 Q704.5594,113.7 704.6625,113.7 Q704.8594,113.7 705,113.8594 Q705.15,114.0094 705.15,114.225 Q705.15,114.4312 704.9438,114.675 Q704.6438,115.0313 704.1656,115.2281 Q703.5375,115.5 702.7688,115.5 Q701.8688,115.5 701.1469,115.1438 Q700.5656,114.8625 700.1531,114.2531 Q699.75,113.6438 699.75,112.9219 L699.75,112.2656 Q699.75,111.5156 700.1062,110.8594 Q700.4719,110.2031 701.1,109.8563 Q701.7375,109.5 702.45,109.5 Q702.8813,109.5 703.2563,109.65 Q703.6313,109.8 703.95,110.1 Z " fill="#000000"/><text fill="#000000" font-family="sans-serif" font-size="8.4" lengthAdjust="spacing" textLength="65.4" x="715.05" y="115.6371">EmployeeService</text><line style="stroke:#181818;stroke-width:0.3;" x1="560.4" x2="915.6" y1="121.8" y2="121.8"/><line style="stroke:#181818;stroke-width:0.3;" x1="560.4" x2="915.6" y1="126.6" y2="126.6"/><ellipse cx="566.4" cy="135.1828" fill="#84BE84" rx="1.8" ry="1.8" style="stroke:#038048;stroke-width:0.6;"/><text fill="#000000" font-family="sans-serif" font-size="8.4" lengthAdjust="spacing" textLength="166.8" x="571.8" y="137.7199">EmployeeService(context:EmployeeContext)</text><ellipse cx="566.4" cy="145.7484" fill="#84BE84" rx="1.8" ry="1.8" style="stroke:#038048;stroke-width:0.6;"/><text fill="#000000" font-family="sans-serif" font-size="8.4" lengthAdjust="spacing" textLength="310.8" x="571.8" y="148.2855">GetEmployeeAsync(employeeId:int, token:CancellationToken) : Task&lt;Employee?&gt;</text><ellipse cx="566.4" cy="156.3141" fill="#84BE84" rx="1.8" ry="1.8" style="stroke:#038048;stroke-width:0.6;"/><text fill="#000000" font-family="sans-serif" font-size="8.4" lengthAdjust="spacing" textLength="321" x="571.8" y="158.8512">ListEmployees(employeeQuery:IQuery, token:CancellationToken) : Task&lt;Response&gt;</text><ellipse cx="566.4" cy="166.8797" fill="#84BE84" rx="1.8" ry="1.8" style="stroke:#038048;stroke-width:0.6;"/><text fill="#000000" font-family="sans-serif" font-size="8.4" lengthAdjust="spacing" textLength="340.8" x="571.8" y="169.4168">UpdateEmployeeAsync(employee:Employee, token:CancellationToken) : Task&lt;Employee&gt;</text></g><!--MD5=[d0599cc01c9c0b4a7456cc8ef20c2cce]
class EmployeeContext--><g id="elem_EmployeeContext"><rect fill="#F1F1F1" height="28.8" id="EmployeeContext" rx="1.5" ry="1.5" style="stroke:#181818;stroke-width:0.3;" width="85.2" x="695.4" y="256.8"/><ellipse cx="704.4" cy="266.4" fill="#ADD1B2" rx="6.6" ry="6.6" style="stroke:#181818;stroke-width:0.6;"/><path d="M705.6,264.3 Q705.7219,264 705.8625,263.85 Q706.0031,263.7 706.1625,263.7 Q706.4438,263.7 706.6219,263.8688 Q706.8,264.0375 706.8,264.4313 L706.8,265.3688 Q706.8,265.7625 706.6313,265.9313 Q706.4625,266.1 706.2,266.1 Q705.9656,266.1 705.8156,265.9969 Q705.6656,265.8938 705.6,265.6219 Q705.5719,265.4344 705.4688,265.3313 Q705.2813,265.1344 704.9438,265.0219 Q704.6062,264.9 704.2688,264.9 Q703.8469,264.9 703.4906,265.0687 Q703.1438,265.2375 702.8719,265.6125 Q702.6,265.9875 702.6,266.5031 L702.6,267.0563 Q702.6,267.675 703.1062,268.0875 Q703.6125,268.5 704.5125,268.5 Q705.0469,268.5 705.4219,268.3781 Q705.6375,268.3125 705.8813,268.0969 Q706.0406,267.975 706.125,267.9375 Q706.2094,267.9 706.3125,267.9 Q706.5094,267.9 706.65,268.0594 Q706.8,268.2094 706.8,268.425 Q706.8,268.6312 706.5938,268.875 Q706.2937,269.2313 705.8156,269.4281 Q705.1875,269.7 704.4187,269.7 Q703.5188,269.7 702.7969,269.3438 Q702.2156,269.0625 701.8031,268.4531 Q701.4,267.8438 701.4,267.1219 L701.4,266.4656 Q701.4,265.7156 701.7563,265.0594 Q702.1219,264.4031 702.75,264.0563 Q703.3875,263.7 704.1,263.7 Q704.5313,263.7 704.9063,263.85 Q705.2813,264 705.6,264.3 Z " fill="#000000"/><text fill="#000000" font-family="sans-serif" font-size="8.4" lengthAdjust="spacing" textLength="66" x="712.8" y="269.8371">EmployeeContext</text><line style="stroke:#181818;stroke-width:0.3;" x1="696" x2="780" y1="276" y2="276"/><line style="stroke:#181818;stroke-width:0.3;" x1="696" x2="780" y1="280.8" y2="280.8"/></g><!--MD5=[58a2b47df2f555a80c45ea1be5525ff9]
reverse link IWork to IEmployee--><g id="link_IWork_IEmployee"><path codeLine="18" d="M447.99,62.058 C417.192,79.428 376.842,102.18 348.582,118.122 " fill="none" id="IWork-backto-IEmployee" style="stroke:#181818;stroke-width:0.6;"/><polygon fill="none" points="445.938,58.398,458.454,56.16,450.06,65.712,445.938,58.398" style="stroke:#181818;stroke-width:0.6;"/></g><!--MD5=[e4b8c2293414abdfa363c46b2bfb7381]
reverse link IVacation to IEmployee--><g id="link_IVacation_IEmployee"><path codeLine="19" d="M314.4,68.508 C314.4,84.762 314.4,104.052 314.4,118.08 " fill="none" id="IVacation-backto-IEmployee" style="stroke:#181818;stroke-width:0.6;"/><polygon fill="none" points="310.2,68.28,314.4,56.28,318.6,68.28,310.2,68.28" style="stroke:#181818;stroke-width:0.6;"/></g><!--MD5=[49c9d444c5c850ff09d002637d3e1375]
reverse link ITimeSheet to IEmployee--><g id="link_ITimeSheet_IEmployee"><path codeLine="20" d="M173.64,71.724 C207.03,87.306 245.106,105.072 273.234,118.194 " fill="none" id="ITimeSheet-backto-IEmployee" style="stroke:#181818;stroke-width:0.6;"/><polygon fill="none" points="171.852,75.528,162.75,66.648,175.404,67.914,171.852,75.528" style="stroke:#181818;stroke-width:0.6;"/></g><!--MD5=[20cc88d4378524de38d4db43cac4f051]
reverse link IEmployee to Employee--><g id="link_IEmployee_Employee"><path codeLine="48" d="M314.4,170.154 C314.4,181.914 314.4,195.702 314.4,209.232 " fill="none" id="IEmployee-backto-Employee" style="stroke:#181818;stroke-width:0.6;"/><polygon fill="none" points="310.2,170.076,314.4,158.076,318.6,170.076,310.2,170.076" style="stroke:#181818;stroke-width:0.6;"/></g><!--MD5=[a5caa0ad2a572e6cd7be87b1ece263b8]
link Employee to EmployeeType--><g id="link_Employee_EmployeeType"><path codeLine="49" d="M388.212,333.018 C410.406,351.432 432.906,370.092 448.218,382.788 " fill="none" id="Employee-to-EmployeeType" style="stroke:#181818;stroke-width:0.6;"/><polygon fill="#181818" points="450.612,384.78,447.9865,379.486,448.3024,382.8654,444.923,383.1813,450.612,384.78" style="stroke:#181818;stroke-width:0.6;"/><text fill="#000000" font-family="sans-serif" font-size="7.8" lengthAdjust="spacing" textLength="51.6" x="452.9213" y="378.3533">EmployeeType</text></g><!--MD5=[48baa9e3bcbc894daa451df939935f55]
reverse link Employee to HourlyEmployee--><g id="link_Employee_HourlyEmployee"><path codeLine="50" d="M216.198,339.894 C201.528,350.07 187.086,360.084 174.396,368.886 " fill="none" id="Employee-backto-HourlyEmployee" style="stroke:#181818;stroke-width:0.6;"/><polygon fill="none" points="213.864,336.408,226.116,333.018,218.646,343.308,213.864,336.408" style="stroke:#181818;stroke-width:0.6;"/></g><!--MD5=[14f1b6234bf78c2a4d17b2496aa205af]
reverse link Employee to SalariedEmployee--><g id="link_Employee_SalariedEmployee"><path codeLine="51" d="M314.4,345.282 C314.4,353.58 314.4,361.644 314.4,368.886 " fill="none" id="Employee-backto-SalariedEmployee" style="stroke:#181818;stroke-width:0.6;"/><polygon fill="none" points="310.2,345.018,314.4,333.018,318.6,345.018,310.2,345.018" style="stroke:#181818;stroke-width:0.6;"/></g><!--MD5=[fb0d60fff60527246d3b09d2a29944cd]
reverse link SalariedEmployee to ManagerEmployee--><g id="link_SalariedEmployee_ManagerEmployee"><path codeLine="52" d="M314.4,441.972 C314.4,449.898 314.4,458.028 314.4,465.48 " fill="none" id="SalariedEmployee-backto-ManagerEmployee" style="stroke:#181818;stroke-width:0.6;"/><polygon fill="none" points="310.2,441.822,314.4,429.822,318.6,441.822,310.2,441.822" style="stroke:#181818;stroke-width:0.6;"/></g><!--MD5=[64eedc1debc75983ce0df89eeb9867bb]
link IResponse`1 to IList`1--><g id="link_IResponse`1_IList`1"><path codeLine="70" d="M1001.658,56.124 C989.682,68.124 976.026,84.672 969.6,102.6 C950.262,156.588 983.058,223.392 1001.034,253.938 " fill="none" id="IResponse`1-to-IList`1" style="stroke:#181818;stroke-width:0.6;"/><polygon fill="#181818" points="1002.618,256.608,1001.9207,250.74,1001.0846,254.0295,997.7951,253.1934,1002.618,256.608" style="stroke:#181818;stroke-width:0.6;"/><text fill="#000000" font-family="sans-serif" font-size="7.8" lengthAdjust="spacing" textLength="64.8" x="927.7311" y="250.404">Data&lt;TResponse&gt;</text></g><!--MD5=[94f86691f7606747e2ea1c47de94bc75]
reverse link IResponse`1 to Response--><g id="link_IResponse`1_Response"><path codeLine="80" d="M1039.098,67.086 C1046.622,81.732 1055.538,99.108 1062.63,112.92 " fill="none" id="IResponse`1-backto-Response" style="stroke:#181818;stroke-width:0.6;"/><polygon fill="none" points="1035.294,68.868,1033.548,56.28,1042.764,65.034,1035.294,68.868" style="stroke:#181818;stroke-width:0.6;"/><text fill="#000000" font-family="sans-serif" font-size="7.8" lengthAdjust="spacing" textLength="44.4" x="986.9656" y="68.8307">&lt;Employee&gt;</text></g><!--MD5=[39c7d66c0435e4fa29311e6fb0d92b99]
link Response to IList`1--><g id="link_Response_IList`1"><path codeLine="81" d="M1063.458,162.966 C1050.702,189.45 1030.65,231.054 1019.592,254.01 " fill="none" id="Response-to-IList`1" style="stroke:#181818;stroke-width:0.6;"/><polygon fill="#181818" points="1018.29,256.716,1022.7936,252.89,1019.5904,254.0125,1018.468,250.8094,1018.29,256.716" style="stroke:#181818;stroke-width:0.6;"/><text fill="#000000" font-family="sans-serif" font-size="7.8" lengthAdjust="spacing" textLength="60.6" x="1027.7687" y="250.2986">Data&lt;Employee&gt;</text></g><!--MD5=[04595370498d7e8f273314df535f75a7]
reverse link IQuery to Request--><g id="link_IQuery_Request"><path codeLine="88" d="M1260.6,73.356 C1260.6,84.588 1260.6,96.816 1260.6,107.55 " fill="none" id="IQuery-backto-Request" style="stroke:#181818;stroke-width:0.6;"/><polygon fill="none" points="1256.4,73.23,1260.6,61.23,1264.8,73.23,1256.4,73.23" style="stroke:#181818;stroke-width:0.6;"/></g><!--MD5=[f3fd3c51b7811571e45c6090e1537d4a]
reverse link IEmployeeService`2 to EmployeeService--><g id="link_IEmployeeService`2_EmployeeService"><path codeLine="100" d="M738,78.822 C738,86.7 738,94.866 738,102.504 " fill="none" id="IEmployeeService`2-backto-EmployeeService" style="stroke:#181818;stroke-width:0.6;"/><polygon fill="none" points="733.8,78.78,738,66.78,742.2,78.78,733.8,78.78" style="stroke:#181818;stroke-width:0.6;"/><text fill="#000000" font-family="sans-serif" font-size="7.8" lengthAdjust="spacing" textLength="81.6" x="651.1725" y="79.4174">&lt;Response,Employee&gt;</text></g><!--MD5=[26be1858eadc2eaddf0bccbb77cd8f88]
link EmployeeService to EmployeeContext--><g id="link_EmployeeService_EmployeeContext"><path codeLine="101" d="M738,173.454 C738,199.338 738,233.514 738,253.668 " fill="none" id="EmployeeService-to-EmployeeContext" style="stroke:#181818;stroke-width:0.6;"/><polygon fill="#181818" points="738,256.776,740.4,251.376,738,253.776,735.6,251.376,738,256.776" style="stroke:#181818;stroke-width:0.6;"/><text fill="#000000" font-family="sans-serif" font-size="7.8" lengthAdjust="spacing" textLength="27" x="707.5406" y="250.3739">Context</text></g><!--MD5=[8a23d5d730f972bebd6a2dd2a2fb793a]
@startuml
interface ITimeSheet {
    VacationDaysAccumulated : float <<get>> <<set>>
    VacationDaysCurrentBalance : float <<get>> <<set>>
    TotalDaysWorkedThisYear : ushort <<get>> <<set>>
}

interface IVacation {
    TakeVacation(vacationDaysRequested:float) : void
}

interface IWork {
    Work(daysWorked:int) : void
}

interface IEmployee {
    EmployeeId : int <<get>>
}
IWork <|- - IEmployee
IVacation <|- - IEmployee
ITimeSheet <|- - IEmployee

class Employee {
    + EmployeeId : int <<get>>
    # Employee(id:int, type:EmployeeType)
    # Employee(type:EmployeeType)
    + <<virtual>> Work(daysWorked:int) : void
    + <<virtual>> TakeVacation(vacationDaysRequested:float) : void
    + VacationDaysAccumulated : float <<get>> <<set>>
    + VacationDaysCurrentBalance : float <<get>> <<set>>
    + TotalDaysWorkedThisYear : ushort <<get>> <<set>>
    # Clone() : object
}
class HourlyEmployee {
    + CloneHourly() : HourlyEmployee
    + HourlyEmployee(id:int)
    + HourlyEmployee()
}
class SalariedEmployee {
    + CloneSalaried() : SalariedEmployee
    + SalariedEmployee(id:int, type:EmployeeType)
    + SalariedEmployee(type:EmployeeType)
}
class ManagerEmployee {
    + CloneManager() : ManagerEmployee
    + ManagerEmployee(id:int)
    + ManagerEmployee()
}
IEmployee <|- - Employee
Employee - -> "EmployeeType" EmployeeType
Employee <|- - HourlyEmployee
Employee <|- - SalariedEmployee
SalariedEmployee <|- - ManagerEmployee

interface "IEmployeeService`2"<TResponse,T> {
    GetEmployeeAsync(employeeId:int, token:CancellationToken) : Task<T?>
    ListEmployees(employeeQuery:IQuery, token:CancellationToken) : Task<TResponse>
    UpdateEmployeeAsync(employee:T, token:CancellationToken) : Task<T>
}
class "IResponse`1"<T> {
}
interface IQuery {
    Top : ushort <<get>>
    Skip : ushort <<get>>
}
interface "IResponse`1"<TResponse> {
    + Count : long? <<get>>
}
class "IList`1"<T> {
}
"IResponse`1" - -> "Data<TResponse>" "IList`1"

class Response {
    + Response(count:long?, data:IList<Employee>)
    + Count : long? <<get>>
}
class "IResponse`1"<T> {
}
class "IList`1"<T> {
}
"IResponse`1" "<Employee>" <|- - Response
Response - -> "Data<Employee>" "IList`1"

class Request {
    + Request(skip:ushort, top:ushort)
    + Top : ushort <<get>>
    + Skip : ushort <<get>>
}
IQuery <|- - Request

class EmployeeService {
    + EmployeeService(context:EmployeeContext)
    + GetEmployeeAsync(employeeId:int, token:CancellationToken) : Task<Employee?>
    + ListEmployees(employeeQuery:IQuery, token:CancellationToken) : Task<Response>
    + UpdateEmployeeAsync(employee:Employee, token:CancellationToken) : Task<Employee>
}

class "IEmployeeService`2"<T1,T2> {
}

"IEmployeeService`2" "<Response,Employee>" <|- - EmployeeService
EmployeeService - -> "Context" EmployeeContext
@enduml

PlantUML version 1.2022.7(Mon Aug 22 13:01:30 EDT 2022)
(GPL source distribution)
Java Runtime: OpenJDK Runtime Environment
JVM: Dynamic Code Evolution 64-Bit Server VM
Default Encoding: Cp1252
Language: en
Country: US
--></g></svg>